<svg width="25" height="25" viewBox="0 0 25 25" fill="none" xmlns="http://www.w3.org/2000/svg">
<path d="M10.3984 17.2283L5.625 12.4538L7.21575 10.863L10.3984 14.0445L16.7614 7.68042L18.3532 9.27229L10.3984 17.2283Z" fill="#5F8FD9"/>
<path fill-rule="evenodd" clip-rule="evenodd" d="M0 12.375C0 5.54063 5.54063 0 12.375 0C19.2094 0 24.75 5.54063 24.75 12.375C24.75 19.2094 19.2094 24.75 12.375 24.75C5.54063 24.75 0 19.2094 0 12.375ZM12.375 22.5C11.0454 22.5 9.72875 22.2381 8.50033 21.7293C7.27191 21.2205 6.15574 20.4746 5.21554 19.5345C4.27535 18.5943 3.52955 17.4781 3.02072 16.2497C2.51189 15.0212 2.25 13.7046 2.25 12.375C2.25 11.0454 2.51189 9.72875 3.02072 8.50033C3.52955 7.27191 4.27535 6.15574 5.21554 5.21554C6.15574 4.27535 7.27191 3.52955 8.50033 3.02072C9.72875 2.51189 11.0454 2.25 12.375 2.25C15.0603 2.25 17.6356 3.31674 19.5345 5.21554C21.4333 7.11435 22.5 9.68968 22.5 12.375C22.5 15.0603 21.4333 17.6356 19.5345 19.5345C17.6356 21.4333 15.0603 22.5 12.375 22.5Z" fill="#5F8FD9"/>
</svg>
