<svg width="30" height="30" viewBox="0 0 30 30" fill="none" xmlns="http://www.w3.org/2000/svg">
<path d="M7.5 0C3 0 0 4.5 0 9C0 12.165 1.5 16.5 3 18C4.5 19.5 6 30 9 30C15.81 30 12 19.5 15 19.5C18 19.5 14.19 30 21 30C24 30 25.5 19.5 27 18C28.5 16.5 30 12.165 30 9C30 4.5 27 0 22.5 0C18 0 18 1.5 15 1.5C12 1.5 12 0 7.5 0ZM7.5 3C10.5 3 12 4.5 15 4.5C18 4.5 19.5 3 22.5 3C25.005 3 27 6 27 9C27 11.625 25.71 15.165 24.285 16.59C22.995 17.88 21.09 26.91 20.25 26.91C19.935 26.91 19.5 25.32 19.5 23.385C19.5 20.325 18.645 16.5 15 16.5C11.355 16.5 10.5 20.325 10.5 23.385C10.5 25.32 10.065 26.91 9.75 26.91C8.91 26.91 7.005 17.88 5.715 16.59C4.29 15.165 3 11.625 3 9C3 6 4.995 3 7.5 3Z" fill="#333333"/>
</svg>
