<svg width="30" height="30" viewBox="0 0 30 30" fill="none" xmlns="http://www.w3.org/2000/svg">
<path d="M22.5 0.25C24.6589 0.25 26.4658 1.32736 27.7402 2.96582C29.0167 4.60703 29.75 6.80246 29.75 9C29.75 10.5482 29.3816 12.3961 28.8252 14.0449C28.2662 15.7013 27.5315 17.115 26.8232 17.8232C26.6008 18.0457 26.398 18.4106 26.2061 18.8447C26.0108 19.2863 25.8143 19.8287 25.6143 20.4287C25.4141 21.0293 25.2087 21.6942 24.9951 22.3818C24.7812 23.0705 24.5586 23.7831 24.3252 24.4834C23.8571 25.8876 23.3484 27.226 22.7764 28.21C22.4904 28.7019 22.1952 29.0923 21.8926 29.3574C21.5917 29.621 21.2967 29.75 21 29.75C19.3755 29.75 18.4181 29.1308 17.8203 28.2217C17.2083 27.2909 16.9566 26.0304 16.8203 24.7236C16.7525 24.0731 16.7141 23.4235 16.6709 22.8047C16.628 22.1901 16.5802 21.604 16.4922 21.0977C16.405 20.5959 16.273 20.1429 16.0459 19.8105C15.8077 19.462 15.4654 19.25 15 19.25C14.5346 19.25 14.1923 19.462 13.9541 19.8105C13.727 20.1429 13.595 20.5959 13.5078 21.0977C13.4198 21.604 13.372 22.1901 13.3291 22.8047C13.2859 23.4235 13.2475 24.0731 13.1797 24.7236C13.0434 26.0304 12.7917 27.2909 12.1797 28.2217C11.5819 29.1308 10.6245 29.75 9 29.75C8.70335 29.75 8.40828 29.621 8.10742 29.3574C7.80482 29.0923 7.50963 28.7019 7.22363 28.21C6.65161 27.226 6.14289 25.8876 5.6748 24.4834C5.44136 23.7831 5.21882 23.0705 5.00488 22.3818C4.79129 21.6942 4.58593 21.0293 4.38574 20.4287C4.18574 19.8287 3.98918 19.2863 3.79395 18.8447C3.60197 18.4106 3.3992 18.0457 3.17676 17.8232C2.4685 17.115 1.73381 15.7013 1.1748 14.0449C0.618383 12.3961 0.25 10.5482 0.25 9C0.25 6.80246 0.98327 4.60703 2.25977 2.96582C3.53415 1.32736 5.34109 0.25 7.5 0.25C9.71369 0.25 10.8073 0.617437 11.7197 0.982422C12.6526 1.35559 13.4453 1.75 15 1.75C16.5547 1.75 17.3474 1.35559 18.2803 0.982422C19.1927 0.617437 20.2863 0.25 22.5 0.25ZM22.5 2.75C20.9554 2.75 19.796 3.13766 18.6709 3.5127C17.546 3.88766 16.4554 4.25 15 4.25C13.5446 4.25 12.454 3.88766 11.3291 3.5127C10.204 3.13766 9.0446 2.75 7.5 2.75C6.14159 2.75 4.94898 3.56238 4.10742 4.72852C3.26458 5.89647 2.75 7.448 2.75 9C2.75 10.3486 3.08027 11.9194 3.58789 13.3301C4.09386 14.7361 4.78812 16.0166 5.53809 16.7666C5.66741 16.8959 5.8237 17.1452 5.99902 17.5117C6.17116 17.8715 6.35088 18.3217 6.53613 18.832C6.90666 19.8528 7.29047 21.096 7.66211 22.3066C8.03249 23.5132 8.39225 24.6901 8.71191 25.5645C8.87132 26.0005 9.02499 26.3727 9.16895 26.6387C9.24032 26.7705 9.31542 26.8885 9.39551 26.9766C9.46747 27.0557 9.58734 27.1602 9.75 27.1602C9.89654 27.1602 10.0007 27.0701 10.0596 27.0039C10.1238 26.9317 10.1782 26.8382 10.2256 26.7383C10.3215 26.5362 10.4103 26.2579 10.4863 25.9297C10.6392 25.27 10.75 24.3693 10.75 23.3848C10.75 21.8708 10.9626 20.1952 11.6064 18.9072C11.927 18.2662 12.3505 17.7286 12.9004 17.3516C13.4482 16.976 14.135 16.75 15 16.75C15.865 16.75 16.5518 16.976 17.0996 17.3516C17.6495 17.7286 18.073 18.2662 18.3936 18.9072C19.0374 20.1952 19.25 21.8708 19.25 23.3848C19.25 24.3693 19.3608 25.27 19.5137 25.9297C19.5897 26.2579 19.6785 26.5362 19.7744 26.7383C19.8218 26.8382 19.8762 26.9317 19.9404 27.0039C19.9993 27.0701 20.1035 27.1602 20.25 27.1602C20.4127 27.1602 20.5325 27.0557 20.6045 26.9766C20.6846 26.8885 20.7597 26.7705 20.8311 26.6387C20.975 26.3727 21.1287 26.0005 21.2881 25.5645C21.6077 24.6901 21.9675 23.5132 22.3379 22.3066C22.7095 21.096 23.0933 19.8528 23.4639 18.832C23.6491 18.3217 23.8288 17.8715 24.001 17.5117C24.1763 17.1452 24.3326 16.8959 24.4619 16.7666C25.2119 16.0166 25.9061 14.7361 26.4121 13.3301C26.9197 11.9194 27.25 10.3486 27.25 9C27.25 7.448 26.7354 5.89647 25.8926 4.72852C25.051 3.56238 23.8584 2.75 22.5 2.75Z" stroke="#333333" stroke-width="0.5"/>
</svg>
