<svg width="54" height="54" viewBox="0 0 54 54" fill="none" xmlns="http://www.w3.org/2000/svg">
<circle cx="27" cy="27" r="27" fill="#2F45F5"/>
<path d="M25.2275 25.8613H26.4492C27.4805 25.8613 28.3096 25.6768 28.9365 25.3076C29.7041 24.8564 30.0879 24.2383 30.0879 23.4531C30.0879 22.8027 29.8066 22.2871 29.2441 21.9062C28.7461 21.5723 28.125 21.4053 27.3809 21.4053C26.0332 21.4053 24.7383 21.9209 23.4961 22.9521L22.2217 21.3789C23.7275 20.1719 25.5 19.5684 27.5391 19.5684C28.9043 19.5684 30.0264 19.8496 30.9053 20.4121C31.9658 21.0977 32.4961 22.0674 32.4961 23.3213C32.4961 24.2822 32.1299 25.1055 31.3975 25.791C30.8291 26.3184 30.0791 26.6494 29.1475 26.7842V26.8545C30.3545 27.0537 31.2773 27.4521 31.916 28.0498C32.5781 28.6709 32.9092 29.5 32.9092 30.5371C32.9092 32.0488 32.2969 33.1797 31.0723 33.9297C30.1523 34.4922 28.9453 34.7734 27.4512 34.7734C25.0957 34.7734 23.1855 34.0527 21.7207 32.6113L23.0479 31.0293C23.5166 31.5273 24.1201 31.9375 24.8584 32.2598C25.7549 32.6523 26.625 32.8486 27.4688 32.8486C28.418 32.8486 29.1592 32.6494 29.6924 32.251C30.208 31.8701 30.4658 31.2871 30.4658 30.502C30.4658 29.4238 29.9473 28.6592 28.9102 28.208C28.2129 27.9033 27.375 27.751 26.3965 27.751H25.2275V25.8613Z" fill="white"/>
</svg>
