<svg width="54" height="54" viewBox="0 0 54 54" fill="none" xmlns="http://www.w3.org/2000/svg">
<circle cx="27" cy="27" r="27" fill="#2F45F5"/>
<path d="M22.5645 34.4482V32.4619C23.1211 30.7334 24.6387 29.043 27.1172 27.3906L27.6006 27.0654C28.667 26.3564 29.3994 25.7764 29.7979 25.3252C30.2432 24.8213 30.4658 24.2764 30.4658 23.6904C30.4658 23.1631 30.3047 22.7061 29.9824 22.3193C29.502 21.7393 28.7842 21.4492 27.8291 21.4492C26.4053 21.4492 25.125 22.0439 23.9883 23.2334L22.4766 21.8447C22.875 21.3584 23.3496 20.9482 23.9004 20.6143C25.0781 19.8994 26.3906 19.542 27.8379 19.542C28.9629 19.542 29.9385 19.7559 30.7646 20.1836C31.4795 20.5586 32.0303 21.0684 32.417 21.7129C32.7744 22.3223 32.9531 22.9814 32.9531 23.6904C32.9531 24.6221 32.5986 25.4834 31.8896 26.2744C31.415 26.8076 30.5273 27.5166 29.2266 28.4014L28.6641 28.7793C27.2871 29.7109 26.3789 30.4023 25.9395 30.8535C25.4004 31.4043 25.043 31.8994 24.8672 32.3389H33.0938V34.4482H22.5645Z" fill="white"/>
</svg>
