<svg width="27" height="27" viewBox="0 0 27 27" fill="none" xmlns="http://www.w3.org/2000/svg">
<path d="M13.5 2.25C19.7134 2.25 24.75 7.28663 24.75 13.5C24.75 19.7134 19.7134 24.75 13.5 24.75C7.28663 24.75 2.25 19.7134 2.25 13.5C2.25 7.28663 7.28663 2.25 13.5 2.25ZM13.5 18C13.2016 18 12.9155 18.1185 12.7045 18.3295C12.4935 18.5405 12.375 18.8266 12.375 19.125C12.375 19.4234 12.4935 19.7095 12.7045 19.9205C12.9155 20.1315 13.2016 20.25 13.5 20.25C13.7984 20.25 14.0845 20.1315 14.2955 19.9205C14.5065 19.7095 14.625 19.4234 14.625 19.125C14.625 18.8266 14.5065 18.5405 14.2955 18.3295C14.0845 18.1185 13.7984 18 13.5 18ZM13.5 7.3125C12.4184 7.3125 11.3811 7.74216 10.6163 8.50696C9.85153 9.27175 9.42188 10.309 9.42188 11.3906C9.42188 11.689 9.5404 11.9751 9.75138 12.1861C9.96236 12.3971 10.2485 12.5156 10.5469 12.5156C10.8452 12.5156 11.1314 12.3971 11.3424 12.1861C11.5533 11.9751 11.6719 11.689 11.6719 11.3906C11.6722 11.0588 11.7629 10.7333 11.9342 10.4491C12.1055 10.1649 12.3509 9.93264 12.6441 9.77728C12.9373 9.62193 13.2673 9.54931 13.5987 9.56721C13.93 9.58512 14.2502 9.69288 14.525 9.87893C14.7998 10.065 15.0187 10.3223 15.1584 10.6233C15.298 10.9244 15.3531 11.2577 15.3177 11.5877C15.2823 11.9176 15.1578 12.2317 14.9575 12.4962C14.7571 12.7608 14.4886 12.9658 14.1806 13.0894C13.4201 13.3931 12.375 14.1716 12.375 15.4688V15.75C12.375 16.0484 12.4935 16.3345 12.7045 16.5455C12.9155 16.7565 13.2016 16.875 13.5 16.875C13.7984 16.875 14.0845 16.7565 14.2955 16.5455C14.5065 16.3345 14.625 16.0484 14.625 15.75C14.625 15.4755 14.6812 15.3383 14.9186 15.2212L15.0165 15.1762C15.8949 14.8229 16.6231 14.1749 17.0761 13.3435C17.5291 12.5121 17.6788 11.549 17.4995 10.6193C17.3202 9.68961 16.8231 8.85123 16.0934 8.2479C15.3637 7.64458 14.4468 7.31388 13.5 7.3125Z" fill="#6BB7C8"/>
</svg>
