<svg width="36" height="36" viewBox="0 0 36 36" fill="none" xmlns="http://www.w3.org/2000/svg">
<path d="M15.375 28H20.625C20.7576 28 20.8847 28.0527 20.9785 28.1465C21.0723 28.2403 21.125 28.3674 21.125 28.5C21.125 28.6326 21.0723 28.7597 20.9785 28.8535C20.8847 28.9473 20.7576 29 20.625 29H15.375C15.2424 29 15.1153 28.9473 15.0215 28.8535C14.9277 28.7597 14.875 28.6326 14.875 28.5C14.875 28.3674 14.9277 28.2403 15.0215 28.1465C15.1153 28.0527 15.2424 28 15.375 28Z" fill="white" stroke="#1A6EB0" stroke-width="0.5"/>
<path d="M15.2549 3.625H20.7451C21.5512 3.625 22.2072 3.62497 22.7422 3.66895H22.7432C23.2964 3.71265 23.7943 3.81077 24.2588 4.04785C24.9879 4.41935 25.5806 5.01213 25.9521 5.74121C26.1892 6.20572 26.2874 6.70355 26.3311 7.25684V7.25781C26.375 7.7928 26.375 8.44879 26.375 9.25488V26.7451C26.375 27.5512 26.375 28.2072 26.3311 28.7422V28.7432C26.2874 29.2964 26.1892 29.7943 25.9521 30.2588C25.581 30.9878 24.9885 31.5804 24.2598 31.9521C23.7937 32.1893 23.2963 32.2874 22.7432 32.3311H22.7422C22.2072 32.375 21.5507 32.375 20.7461 32.375H15.2549C14.4488 32.375 13.7928 32.375 13.2578 32.3311H13.2568C12.7036 32.2874 12.2057 32.1892 11.7412 31.9521C11.0126 31.5814 10.4199 30.9897 10.0479 30.2617C9.81058 29.7954 9.71263 29.2975 9.66895 28.7441V28.7432C9.625 28.2082 9.625 27.552 9.625 26.7461V9.25488C9.625 8.44879 9.62497 7.7928 9.66895 7.25781V7.25684C9.71265 6.70355 9.81077 6.20572 10.0479 5.74121C10.4194 5.01213 11.0121 4.41935 11.7412 4.04785C12.2057 3.81077 12.7036 3.71265 13.2568 3.66895H13.2578C13.7928 3.62497 14.4488 3.625 15.2549 3.625ZM14.376 5.37793C14.0513 5.37815 13.7262 5.38989 13.4023 5.41309H13.4004C12.9546 5.44882 12.7125 5.51638 12.5361 5.60645C12.1357 5.81028 11.8103 6.1357 11.6064 6.53613C11.5389 6.66829 11.4845 6.83744 11.4463 7.10156L11.4131 7.40039C11.3761 7.85675 11.375 8.44442 11.375 9.2998V26.7002C11.375 27.5529 11.3745 28.1431 11.4131 28.5986C11.4399 28.9338 11.4844 29.1539 11.543 29.3174L11.6064 29.4639C11.785 29.8149 12.0559 30.1072 12.3896 30.3115L12.5361 30.3936C12.6683 30.4611 12.8374 30.5155 13.1016 30.5537L13.4004 30.5869C13.8568 30.6239 14.4444 30.625 15.2998 30.625H20.7002C21.5529 30.625 22.1431 30.6255 22.5986 30.5869L22.5977 30.5859C23.0455 30.5502 23.2876 30.4841 23.4648 30.3945L23.4658 30.3936C23.8155 30.215 24.1076 29.9434 24.3115 29.6104L24.3936 29.4639C24.4836 29.2875 24.5512 29.0454 24.5869 28.5986C24.6239 28.1437 24.625 27.5541 24.625 26.7002V9.2998C24.625 8.66015 24.6256 8.16828 24.6094 7.76953L24.5869 7.39941C24.5601 7.06557 24.5155 6.8459 24.457 6.68262L24.3936 6.53613C24.1902 6.13605 23.8655 5.81055 23.4658 5.60645L23.4648 5.60547L23.3174 5.54297C23.1538 5.48464 22.9342 5.43991 22.5996 5.41309H22.5977C22.2738 5.38989 21.9487 5.37815 21.624 5.37793H21.4434L21.3867 5.54883L21.2012 6.1084C21.037 6.59943 20.9711 6.78022 20.8633 6.90918C20.7615 7.03081 20.6309 7.12536 20.4834 7.18359C20.3253 7.24581 20.134 7.25 19.6152 7.25H16.3848C15.866 7.25 15.6747 7.24581 15.5166 7.18359H15.5156C15.3682 7.12566 15.2376 7.03142 15.1357 6.91016C15.028 6.77951 14.9622 6.59757 14.7988 6.10742L14.6133 5.54883L14.5557 5.37793H14.376Z" fill="white" stroke="#1A6EB0" stroke-width="0.5"/>
</svg>
