<svg width="36" height="36" viewBox="0 0 36 36" fill="none" xmlns="http://www.w3.org/2000/svg">
<path d="M20.4435 34.875H3.375C2.77826 34.875 2.20597 34.6379 1.78401 34.216C1.36205 33.794 1.125 33.2217 1.125 32.625V3.375C1.125 2.77826 1.36205 2.20597 1.78401 1.78401C2.20597 1.36205 2.77826 1.125 3.375 1.125H32.625C33.2217 1.125 33.794 1.36205 34.216 1.78401C34.6379 2.20597 34.875 2.77826 34.875 3.375V20.4435C34.8749 21.0398 34.638 21.6117 34.2165 22.0335L22.0335 34.2165C21.6117 34.638 21.0398 34.8749 20.4435 34.875Z" stroke="#2F45F5" stroke-width="1.5" stroke-linecap="round" stroke-linejoin="round"/>
<path d="M21.375 34.6725V23.625C21.375 23.0283 21.6121 22.456 22.034 22.034C22.456 21.6121 23.0283 21.375 23.625 21.375H34.6725M10.125 10.125H28.125M10.125 16.875H18" stroke="#2F45F5" stroke-width="1.5" stroke-linecap="round" stroke-linejoin="round"/>
</svg>
