<svg width="1440" height="50" viewBox="0 0 1440 50" fill="none" xmlns="http://www.w3.org/2000/svg">
<path d="M0 -7.37671e-07V34.6154C0 34.6154 37.5 69.2308 75 34.6154C112.5 -4.69909e-06 150 34.6154 150 34.6154V-7.37671e-07H0Z" fill="#DDECF7"/>
<path d="M150 -7.37671e-07V34.6154C150 34.6154 187.5 69.2308 225 34.6154C262.5 -4.69909e-06 300 34.6154 300 34.6154V-7.37671e-07H150Z" fill="#DDECF7"/>
<path d="M300 -7.37671e-07V34.6154C300 34.6154 337.5 69.2308 375 34.6154C412.5 -4.69909e-06 450 34.6154 450 34.6154V-7.37671e-07H300Z" fill="#DDECF7"/>
<path d="M450 -7.37671e-07V34.6154C450 34.6154 487.5 69.2308 525 34.6154C562.5 -4.69909e-06 600 34.6154 600 34.6154V-7.37671e-07H450Z" fill="#DDECF7"/>
<path d="M600 -7.37671e-07V34.6154C600 34.6154 637.5 69.2308 675 34.6154C712.5 -4.69909e-06 750 34.6154 750 34.6154V-7.37671e-07H600Z" fill="#DDECF7"/>
<path d="M750 -7.37671e-07V34.6154C750 34.6154 787.5 69.2308 825 34.6154C862.5 -4.69909e-06 900 34.6154 900 34.6154V-7.37671e-07H750Z" fill="#DDECF7"/>
<path d="M900 -7.37671e-07V34.6154C900 34.6154 937.5 69.2308 975 34.6154C1012.5 -4.69909e-06 1050 34.6154 1050 34.6154V-7.37671e-07H900Z" fill="#DDECF7"/>
<path d="M1050 -7.37671e-07V34.6154C1050 34.6154 1087.5 69.2308 1125 34.6154C1162.5 -4.69909e-06 1200 34.6154 1200 34.6154V-7.37671e-07H1050Z" fill="#DDECF7"/>
<path d="M1200 -7.37671e-07V34.6154C1200 34.6154 1237.5 69.2308 1275 34.6154C1312.5 -4.69909e-06 1350 34.6154 1350 34.6154V-7.37671e-07H1200Z" fill="#DDECF7"/>
<path d="M1350 -7.37671e-07V34.6154C1350 34.6154 1387.5 69.2308 1425 34.6154C1462.5 -4.69909e-06 1500 34.6154 1500 34.6154V-7.37671e-07H1350Z" fill="#DDECF7"/>
</svg>
