<svg width="1440" height="50" viewBox="0 0 1440 50" fill="none" xmlns="http://www.w3.org/2000/svg">
<path d="M0 50V15.3846C0 15.3846 37.5 -19.2308 75 15.3846C112.5 50 150 15.3846 150 15.3846V50H0Z" fill="#DDECF7"/>
<path d="M150 50V15.3846C150 15.3846 187.5 -19.2308 225 15.3846C262.5 50 300 15.3846 300 15.3846V50H150Z" fill="#DDECF7"/>
<path d="M300 50V15.3846C300 15.3846 337.5 -19.2308 375 15.3846C412.5 50 450 15.3846 450 15.3846V50H300Z" fill="#DDECF7"/>
<path d="M450 50V15.3846C450 15.3846 487.5 -19.2308 525 15.3846C562.5 50 600 15.3846 600 15.3846V50H450Z" fill="#DDECF7"/>
<path d="M600 50V15.3846C600 15.3846 637.5 -19.2308 675 15.3846C712.5 50 750 15.3846 750 15.3846V50H600Z" fill="#DDECF7"/>
<path d="M750 50V15.3846C750 15.3846 787.5 -19.2308 825 15.3846C862.5 50 900 15.3846 900 15.3846V50H750Z" fill="#DDECF7"/>
<path d="M900 50V15.3846C900 15.3846 937.5 -19.2308 975 15.3846C1012.5 50 1050 15.3846 1050 15.3846V50H900Z" fill="#DDECF7"/>
<path d="M1050 50V15.3846C1050 15.3846 1087.5 -19.2308 1125 15.3846C1162.5 50 1200 15.3846 1200 15.3846V50H1050Z" fill="#DDECF7"/>
<path d="M1200 50V15.3846C1200 15.3846 1237.5 -19.2308 1275 15.3846C1312.5 50 1350 15.3846 1350 15.3846V50H1200Z" fill="#DDECF7"/>
<path d="M1350 50V15.3846C1350 15.3846 1387.5 -19.2308 1425 15.3846C1462.5 50 1500 15.3846 1500 15.3846V50H1350Z" fill="#DDECF7"/>
</svg>
